<svg class="svg-icon" style="width: 1em; height: 1em;vertical-align: middle;fill: currentColor;overflow: hidden;" viewBox="0 0 1024 1024" version="1.1" xmlns="http://www.w3.org/2000/svg"><path d="M85.333333 512C85.333333 276.352 276.352 85.333333 512 85.333333s426.666667 191.018667 426.666667 426.666667-191.018667 426.666667-426.666667 426.666667S85.333333 747.648 85.333333 512z m85.333334 0a341.333333 341.333333 0 1 0 682.666666 0 341.333333 341.333333 0 0 0-682.666666 0z m181.418666-66.218667c10.368-21.674667 27.434667-83.114667 39.765334-83.114666 12.288 0 7.808 30.848 18.816 33.536 9.258667 2.261333 2.133333-13.781333 27.861333-16.64s53.76 12.885333 53.76 12.885333 30.378667 7.552 58.410667 0c0 0-14.805333-22.442667 3.328-29.781333 18.090667-7.338667 42.752 19.797333 43.648 37.333333 0.896 17.536-40.277333 29.312-40.277334 29.312l40.277334 24.192s11.818667-37.461333 36.992-37.845333c22.4-0.426667 50.474667 40.533333 37.333333 59.008-13.141333 18.474667-21.589333 5.76-21.589333 5.76s-40.106667 40.618667-52.736 47.914666c-12.586667 7.253333-30.208 0-30.208 0s-7.466667 13.824 0 20.181334c15.146667 15.616 54.485333 31.146667 54.485333 31.146666s120.96 19.669333 124.714667 44.330667c3.754667 24.661333-96.256 149.333333-112 149.333333H597.333333c-15.232-26.88 24.618667-112.810667 24.618667-112.810666s-20.48-22.698667-24.618667-36.522667c-4.096-13.824 7.936-38.144 7.936-38.144l-54.570666-25.130667s-29.013333 0-43.392-11.392c-14.378667-11.392-21.973333-74.666667-21.973334-74.666666l-52.053333-38.144s-45.226667 57.429333-59.946667 50.090666c-14.762667-7.338667-31.573333-19.2-21.248-40.832z m280.32-89.514666c-36.010667 0-122.666667-45.824-108.117333-70.4 0-35.242667 91.093333-29.952 110.634667-29.952 19.541333 0 67.413333 15.104 93.994666 36.266666 26.581333 21.12-11.221333 51.328-24.405333 64.085334-13.226667 12.8-36.053333 0-72.106667 0z" fill="#000000" /></svg>