<svg class="svg-icon" style="width: 1em; height: 1em;vertical-align: middle;fill: currentColor;overflow: hidden;" viewBox="0 0 1024 1024" version="1.1" xmlns="http://www.w3.org/2000/svg"><path d="M384 554.666667h426.666667a42.666667 42.666667 0 0 1 0 85.333333H384a42.666667 42.666667 0 0 1 0-85.333333z m0 170.666666h426.666667a42.666667 42.666667 0 0 1 0 85.333334H384a42.666667 42.666667 0 0 1 0-85.333334z m256-341.333333h170.666667a42.666667 42.666667 0 0 1 0 85.333333h-170.666667a42.666667 42.666667 0 0 1 0-85.333333z m-309.632 81.664L170.666667 306.005333l60.330666-60.373333 99.370667 99.370667L547.328 128l60.373333 60.330667-277.333333 277.333333z" fill="#000000" /></svg>